<?xml version="1.0" encoding="utf-8"?>
<!-- Generator: Adobe Illustrator 21.0.0, SVG Export Plug-In . SVG Version: 6.00 Build 0)  -->
<svg version="1.1" id="Capa_1" xmlns="http://www.w3.org/2000/svg" xmlns:xlink="http://www.w3.org/1999/xlink" x="0px" y="0px"
	 viewBox="0 0 54 35" style="enable-background:new 0 0 54 35;" xml:space="preserve">
<style type="text/css">
	.st0{fill:#464646;}
</style>
<g>
	<g>
		<g>
			<path class="st0" d="M2.5,4.5h49c1.1,0,2-0.9,2-2s-0.9-2-2-2h-49c-1.1,0-2,0.9-2,2S1.4,4.5,2.5,4.5z"/>
			<path class="st0" d="M51.5,5h-49C1.1,5,0,3.9,0,2.5S1.1,0,2.5,0h49C52.9,0,54,1.1,54,2.5S52.9,5,51.5,5z M2.5,1
				C1.7,1,1,1.7,1,2.5S1.7,4,2.5,4h49C52.3,4,53,3.3,53,2.5S52.3,1,51.5,1H2.5z"/>
		</g>
		<g>
			<path class="st0" d="M2.5,19.5h49c1.1,0,2-0.9,2-2s-0.9-2-2-2h-49c-1.1,0-2,0.9-2,2S1.4,19.5,2.5,19.5z"/>
			<path class="st0" d="M51.5,20h-49C1.1,20,0,18.9,0,17.5S1.1,15,2.5,15h49c1.4,0,2.5,1.1,2.5,2.5S52.9,20,51.5,20z M2.5,16
				C1.7,16,1,16.7,1,17.5S1.7,19,2.5,19h49c0.8,0,1.5-0.7,1.5-1.5S52.3,16,51.5,16H2.5z"/>
		</g>
		<g>
			<path class="st0" d="M2.5,34.5h49c1.1,0,2-0.9,2-2s-0.9-2-2-2h-49c-1.1,0-2,0.9-2,2C0.5,33.6,1.4,34.5,2.5,34.5z"/>
			<path class="st0" d="M51.5,35h-49C1.1,35,0,33.9,0,32.5S1.1,30,2.5,30h49c1.4,0,2.5,1.1,2.5,2.5C54,33.9,52.9,35,51.5,35z
				 M2.5,31C1.7,31,1,31.7,1,32.5S1.7,34,2.5,34h49c0.8,0,1.5-0.7,1.5-1.5S52.3,31,51.5,31H2.5z"/>
		</g>
	</g>
</g>
</svg>
