<?xml version="1.0" encoding="utf-8"?>
<!-- Generator: Adobe Illustrator 21.0.0, SVG Export Plug-In . SVG Version: 6.00 Build 0)  -->
<svg version="1.1" id="Capa_1" xmlns="http://www.w3.org/2000/svg" xmlns:xlink="http://www.w3.org/1999/xlink" x="0px" y="0px"
	 viewBox="0 0 27 20" style="enable-background:new 0 0 27 20;" xml:space="preserve">
<style type="text/css">
	.st0{fill:none;stroke:#FFFFFF;stroke-miterlimit:10;}
</style>
<g>
	<path class="st0" d="M26.5,5v13c0,0.8-0.7,1.5-1.5,1.5H3c-0.8,0-1.5-0.7-1.5-1.5V5c0-0.8,0.7-1.5,1.5-1.5h5c0.3,0,0.5-0.1,0.6-0.4
		l1.1-1.9c0.3-0.5,0.8-0.7,1.3-0.7h5.6c0.5,0,1,0.3,1.3,0.7l1.1,1.9c0.1,0.2,0.4,0.4,0.6,0.4H25C25.8,3.5,26.5,4.2,26.5,5z"/>
	<path class="st0" d="M8.5,10.9c0-3,2.5-5.5,5.5-5.5s5.5,2.5,5.5,5.5S17,16.4,14,16.4S8.5,13.9,8.5,10.9z"/>
</g>
</svg>
