<?xml version="1.0" encoding="utf-8"?>
<!-- Generator: Adobe Illustrator 21.0.0, SVG Export Plug-In . SVG Version: 6.00 Build 0)  -->
<svg version="1.1" id="Capa_1" xmlns="http://www.w3.org/2000/svg" xmlns:xlink="http://www.w3.org/1999/xlink" x="0px" y="0px"
	 viewBox="0 0 512 512" style="enable-background:new 0 0 512 512;" xml:space="preserve">
<g>
	<g>
		<path d="M510.4,111c-1.3-1.6-3.1-2.6-5.2-2.8L91.1,70.7C90.9,65,88.6,59.3,84.3,55L40.2,10.9C35.7,6.5,29.8,4,23.5,4
			S11.3,6.5,6.9,10.9C2.4,15.3,0,21.3,0,27.5s2.4,12.2,6.9,16.6L51,88.3c4.4,4.4,10.4,6.9,16.6,6.9c2.4,0,4.7-0.3,6.9-1l62.7,207.6
			c5.1,16.9,20.4,28.1,37.8,28.1c1,0,2,0,3-0.1L461.4,309c14.9-1.1,27.1-12.6,29-27.4l21.5-164.9C512.2,114.7,511.6,112.6,510.4,111
			z M73.7,77.7c-1.6,1.6-3.8,2.5-6,2.5s-4.4-0.9-6-2.5L17.5,33.6c-1.6-1.6-2.5-3.8-2.5-6s0.9-4.4,2.5-6s3.8-2.5,6-2.5s4.4,0.9,6,2.5
			l44.1,44.1C77,68.9,77,74.3,73.7,77.7z M258.3,100.9l3.4,54.9l-70.1-2.6l-11.1-59.4L258.3,100.9z M87.5,85.4l77.4,7l11.2,60.2
			l-69.1-2.5L87.5,85.4z M133.1,236.4l-21.5-71l67.3,2.5l12.5,67.3L133.1,236.4z M176.9,314.8c-11.6,0.8-22-6.3-25.3-17.4
			l-13.9-46.1l56.7-1.3l11.7,62.7L176.9,314.8z M194.4,168.3l68.2,2.5l3.9,62.6l-59.7,1.3L194.4,168.3z M221,311.5l-11.5-61.9
			l57.8-1.3l3.7,59.5L221,311.5z M339,302.9l-53,3.9l-3.6-58.8l58.2-1.3L339,302.9z M340.9,231.7l-59.5,1.3l-3.8-61.7l64.8,2.4
			L340.9,231.7z M342.9,158.7l-66.2-2.4l-3.3-54l70.8,6.4L342.9,158.7z M411.2,297.6l-57.1,4.2l1.5-55.4l59.9-1.3L411.2,297.6z
			 M416.6,230.1l-60.7,1.3l1.5-57.1l63.5,2.3L416.6,230.1z M422.1,161.6l-64.3-2.3l1.3-49.2l66.6,6L422.1,161.6z M475.5,279.7
			c-1,7.8-7.4,13.8-15.2,14.4l-34,2.5l4.2-51.8l49.8-1.1L475.5,279.7z M482.2,228.6l-50.5,1.1l4.2-52.6l52.7,1.9L482.2,228.6z
			 M490.6,164.1l-53.5-1.9l3.6-44.7l55.3,5L490.6,164.1z"/>
	</g>
</g>
<g>
	<g>
		<path d="M439.9,445.8v-18h16.5l0,0c4.1,0,7.5-3.4,7.5-7.5s-3.4-7.5-7.5-7.5H144c-2.9,0-5.5-1.4-7.1-3.8s-1.9-5.4-0.7-8.1
			l21.2-49.4c1.6-3.8-0.1-8.2-3.9-9.8c-3.8-1.6-8.2,0.1-9.8,3.9L122.4,395c-3.1,7.3-2.4,15.6,2,22.2s11.7,10.6,19.6,10.6h8.3v18
			c-13.8,3.4-24,15.8-24,30.6c0,17.4,14.2,31.5,31.5,31.5s31.5-14.2,31.5-31.5c0-14.8-10.3-27.3-24-30.6v-18h257.5v18
			c-13.8,3.4-24,15.8-24,30.6c0,17.4,14.2,31.5,31.5,31.5s31.5-14.2,31.5-31.5C463.9,461.6,453.6,449.2,439.9,445.8z M176.4,476.4
			c0,9.1-7.4,16.5-16.5,16.5s-16.5-7.4-16.5-16.5s7.4-16.5,16.5-16.5S176.4,467.3,176.4,476.4z M432.4,493
			c-9.1,0-16.5-7.4-16.5-16.5s7.4-16.5,16.5-16.5s16.5,7.4,16.5,16.5S441.5,493,432.4,493z"/>
	</g>
</g>
</svg>
