<?xml version="1.0" encoding="utf-8"?>
<!-- Generator: Adobe Illustrator 21.0.0, SVG Export Plug-In . SVG Version: 6.00 Build 0)  -->
<svg version="1.1" id="Capa_1" xmlns="http://www.w3.org/2000/svg" xmlns:xlink="http://www.w3.org/1999/xlink" x="0px" y="0px"
	 viewBox="0 0 55.3 13" style="enable-background:new 0 0 55.3 13;" xml:space="preserve">
<style type="text/css">
	.st0{fill:#FFFFFF;}
</style>
<g>
	<path class="st0" d="M6.7,8.4c-0.8,1.5-2.2,2-3.2,2c-1.8,0-3-0.9-2.4-3.5c0.2-0.8,1-3.2,3.7-3.2C6,3.8,7.6,4.4,7,7.3L6.9,7.6H2.5
		C2.5,8.1,2.4,9.1,3.7,9.1c0.5,0,1-0.2,1.2-0.7H6.7z M5.4,6.5c0.1-1-0.5-1.3-1-1.3c-0.8,0-1.3,0.5-1.6,1.3H5.4z"/>
	<path class="st0" d="M13.2,10.3h-1.7l0.8-3.9c0.1-0.5,0.2-1.3-0.8-1.3c-0.7,0-1.4,0.5-1.6,1.5l-0.8,3.7H7.5l1.4-6.4h1.6l-0.2,0.9h0
		c0.3-0.4,0.9-1.1,2.2-1.1c1.2,0,2.1,0.7,1.8,2.1L13.2,10.3z"/>
	<path class="st0" d="M17.7,10.3H16L15,3.9h1.9l0.3,4.7h0l2.4-4.7h1.8L17.7,10.3z"/>
	<path class="st0" d="M24.1,3.9l-1.4,6.4H21l1.4-6.4H24.1z M24.2,3.2h-1.7l0.3-1.6h1.7L24.2,3.2z"/>
	<path class="st0" d="M27.2,10.5c-1.7,0-3-1.1-2.5-3.4s2.3-3.4,4-3.4c1.7,0,3,1.1,2.5,3.4S28.9,10.5,27.2,10.5z M28.3,5.2
		c-1.3,0-1.8,1.1-2,1.9c-0.2,0.8-0.2,1.9,1.1,1.9s1.8-1.1,2-1.9C29.6,6.3,29.6,5.2,28.3,5.2z"/>
	<path class="st0" d="M36.2,5.9c0-0.4,0-0.8-0.9-0.8s-1.1,0.3-1.2,0.6c-0.2,1,3.9,0.3,3.4,2.6c-0.4,1.9-2.3,2.2-3.3,2.2
		c-1.5,0-2.9-0.5-2.6-2.2h1.7c-0.1,0.5,0.1,0.9,1.2,0.9c0.9,0,1.2-0.4,1.2-0.7c0.2-1.1-3.9-0.3-3.4-2.7c0.2-0.9,1-2.1,3-2.1
		c1.2,0,2.7,0.3,2.4,2.1H36.2z"/>
	<path class="st0" d="M40.1,10.3h-1.8l0.4-1.8h1.8L40.1,10.3z"/>
	<path class="st0" d="M44.4,4.9L44.4,4.9c0.4-0.5,1-1.1,2.2-1.1C48,3.8,49,4.8,48.5,7c-0.4,1.8-1.5,3.4-3.4,3.4
		c-1.2,0-1.5-0.6-1.6-1h0l-0.7,3.3h-1.7L43,3.9h1.6L44.4,4.9z M45,9.1c1.1,0,1.6-1.2,1.8-1.9c0.2-1,0.1-2-1-2c-1.2,0-1.6,1-1.9,2.1
		C43.7,8.2,43.9,9.1,45,9.1z"/>
	<path class="st0" d="M54.9,8.4c-0.8,1.5-2.2,2-3.2,2c-1.8,0-3-0.9-2.4-3.5c0.2-0.8,1-3.2,3.7-3.2c1.3,0,2.9,0.6,2.2,3.5l-0.1,0.3
		h-4.4c-0.1,0.5-0.2,1.6,1.2,1.6c0.5,0,1-0.2,1.2-0.7H54.9z M53.6,6.5c0.1-1-0.5-1.3-1-1.3c-0.8,0-1.3,0.5-1.6,1.3H53.6z"/>
</g>
</svg>
