<?xml version="1.0" encoding="utf-8"?>
<!-- Generator: Adobe Illustrator 21.0.0, SVG Export Plug-In . SVG Version: 6.00 Build 0)  -->
<svg version="1.1" id="Capa_1" xmlns="http://www.w3.org/2000/svg" xmlns:xlink="http://www.w3.org/1999/xlink" x="0px" y="0px"
	 viewBox="0 0 512 512" style="enable-background:new 0 0 512 512;" xml:space="preserve">
<style type="text/css">
	.st0{fill:#FFFFFF;}
</style>
<g>
	<g>
		<g>
			<path class="st0" d="M467.8,431.9l-36.7-61.1c-16.9-28.2-25.8-60.4-25.8-93.3V224c0-82.3-67-149.3-149.3-149.3
				s-149.3,67-149.3,149.3v53.5c0,32.9-8.9,65.1-25.8,93.3l-36.7,61.1c-2,3.3-2,7.4-0.1,10.7c1.9,3.3,5.5,5.4,9.3,5.4h405.3
				c3.8,0,7.4-2.1,9.3-5.4C469.8,439.3,469.8,435.1,467.8,431.9z M72.2,426.7l26.9-44.9C118,350.3,128,314.2,128,277.5V224
				c0-70.6,57.4-128,128-128s128,57.4,128,128v53.5c0,36.7,10,72.8,28.9,104.3l27,44.9L72.2,426.7L72.2,426.7z"/>
			<path class="st0" d="M458.7,448.5H53.3c-4,0-7.8-2.2-9.7-5.7c-2-3.5-1.9-7.8,0.2-11.2l36.6-61.1c16.9-28.1,25.8-60.3,25.8-93.1
				V224c0-82.6,67.2-149.8,149.8-149.8S405.8,141.4,405.8,224v53.5c0,32.8,8.9,64.9,25.8,93.1l36.7,61.1l0,0
				c2.1,3.4,2.1,7.7,0.2,11.2C466.4,446.3,462.7,448.5,458.7,448.5z M256,75.2c-82.1,0-148.8,66.8-148.8,148.8v53.5
				c0,32.9-9,65.3-25.9,93.6l-36.7,61.1c-1.9,3.1-1.9,7-0.1,10.2c1.8,3.2,5.2,5.2,8.9,5.2h405.3c3.7,0,7.1-2,8.9-5.2
				c1.8-3.2,1.7-7.1-0.1-10.2l0,0l-36.7-61.1c-16.9-28.3-25.9-60.6-25.9-93.6V224C404.8,141.9,338.1,75.2,256,75.2z M440.7,427.2
				H71.3l27.4-45.7c18.9-31.4,28.8-67.4,28.8-104V224c0-70.9,57.6-128.5,128.5-128.5c70.9,0,128.5,57.6,128.5,128.5v53.5
				c0,36.6,10,72.6,28.8,104L440.7,427.2z M73.1,426.2h365.9L412.4,382c-18.9-31.6-28.9-67.7-28.9-104.5V224
				c0-70.3-57.2-127.5-127.5-127.5S128.5,153.7,128.5,224v53.5c0,36.8-10,73-29,104.5L73.1,426.2z"/>
		</g>
	</g>
</g>
<g>
	<g>
		<g>
			<path class="st0" d="M256,0c-23.5,0-42.7,19.1-42.7,42.7v42.7c0,5.9,4.8,10.7,10.7,10.7s10.7-4.8,10.7-10.7V42.7
				c0-11.8,9.6-21.3,21.3-21.3s21.3,9.6,21.3,21.3v42.7c0,5.9,4.8,10.7,10.7,10.7s10.7-4.8,10.7-10.7V42.7C298.7,19.1,279.5,0,256,0
				z"/>
			<path class="st0" d="M288,96.5c-6.2,0-11.2-5-11.2-11.2V42.7c0-11.5-9.3-20.8-20.8-20.8s-20.8,9.3-20.8,20.8v42.7
				c0,6.2-5,11.2-11.2,11.2s-11.2-5-11.2-11.2V42.7c0-23.8,19.4-43.2,43.2-43.2c23.8,0,43.2,19.4,43.2,43.2v42.7
				C299.2,91.5,294.2,96.5,288,96.5z M256,20.8c12,0,21.8,9.8,21.8,21.8v42.7c0,5.6,4.6,10.2,10.2,10.2s10.2-4.6,10.2-10.2V42.7
				c0-23.3-18.9-42.2-42.2-42.2s-42.2,18.9-42.2,42.2v42.7c0,5.6,4.6,10.2,10.2,10.2s10.2-4.6,10.2-10.2V42.7
				C234.2,30.6,244,20.8,256,20.8z"/>
		</g>
	</g>
</g>
<g>
	<g>
		<g>
			<path class="st0" d="M302.2,431.9c-3-5.1-9.5-6.7-14.6-3.8c-5.1,3-6.8,9.5-3.8,14.6c2.8,4.7,4.3,10.4,4.3,15.9
				c0,17.6-14.4,32-32,32s-32-14.4-32-32c0-5.6,1.5-11.2,4.3-15.9c3-5.1,1.3-11.6-3.8-14.6c-5.1-2.9-11.6-1.3-14.6,3.8
				c-4.7,8.1-7.2,17.3-7.2,26.7c0,29.4,23.9,53.3,53.3,53.3s53.3-23.9,53.4-53.3C309.4,449.2,306.9,440,302.2,431.9z"/>
			<path class="st0" d="M256,512.5c-29.7,0-53.8-24.1-53.8-53.8c0-9.5,2.5-18.8,7.3-27c3.1-5.3,9.9-7.1,15.3-4
				c5.3,3.1,7.1,10,4,15.3c-2.7,4.6-4.2,10.2-4.2,15.7c0,17.4,14.1,31.5,31.5,31.5c17.4,0,31.5-14.1,31.5-31.5
				c0-5.5-1.5-11.1-4.2-15.7c-1.5-2.6-1.9-5.6-1.2-8.5c0.8-2.9,2.6-5.3,5.2-6.8c5.3-3,12.2-1.3,15.3,4l0,0c4.8,8.1,7.3,17.5,7.3,27
				C309.8,488.4,285.7,512.5,256,512.5z M219.1,427.2c-3.5,0-6.8,1.8-8.7,5c-4.7,8-7.1,17.1-7.1,26.5c0,29.1,23.7,52.8,52.8,52.8
				c29.1,0,52.8-23.7,52.9-52.8c0-9.3-2.5-18.5-7.1-26.5c-2.8-4.8-9.1-6.4-13.9-3.6c-2.3,1.4-4,3.6-4.7,6.2
				c-0.7,2.6-0.3,5.4,1.1,7.7c2.8,4.8,4.4,10.5,4.4,16.2c0,17.9-14.6,32.5-32.5,32.5s-32.5-14.6-32.5-32.5c0-5.7,1.5-11.4,4.4-16.2
				c2.8-4.8,1.2-11.1-3.6-13.9C222.6,427.6,220.8,427.2,219.1,427.2z"/>
		</g>
	</g>
</g>
</svg>
