<?xml version="1.0" encoding="utf-8"?>
<!-- Generator: Adobe Illustrator 21.0.0, SVG Export Plug-In . SVG Version: 6.00 Build 0)  -->
<svg version="1.1" id="Capa_1" xmlns="http://www.w3.org/2000/svg" xmlns:xlink="http://www.w3.org/1999/xlink" x="0px" y="0px"
	 viewBox="0 0 512 512" style="enable-background:new 0 0 512 512;" xml:space="preserve">
<g>
	<g>
		<path d="M511,236.2L454.9,140c-0.8-1.3-1.9-2.4-3.4-3L259.1,48.8c-2-0.9-4.3-0.9-6.3,0L60.5,137c-1.4,0.6-2.6,1.7-3.4,3L1,236.2
			c-1.1,1.8-1.3,4-0.7,6s2.1,3.7,4,4.6L196.8,335c3.5,1.6,7.7,0.3,9.6-3l42.1-72.2v185L71.1,363.4v-62.8c0-4.1-3.4-7.5-7.5-7.5
			s-7.5,3.4-7.5,7.5v67.6c0,2.9,1.7,5.6,4.4,6.8l192.4,88.2c1,0.5,2.1,0.7,3.1,0.7c1.1,0,2.1-0.2,3.1-0.7L451.5,375
			c2.7-1.2,4.4-3.9,4.4-6.8v-67.6c0-4.1-3.4-7.5-7.5-7.5s-7.5,3.4-7.5,7.5v62.8l-177.4,81.3v-185l42.1,72.2c1.4,2.4,3.9,3.7,6.5,3.7
			c1,0,2.1-0.2,3.1-0.7l192.4-88.2c1.9-0.9,3.4-2.5,4-4.6C512.3,240.2,512,238,511,236.2z M196.8,318.5L18.1,236.6l48.5-83.2
			l178.7,81.9L196.8,318.5z M256,223.7L81.6,143.8l174.4-80l174.4,79.9L256,223.7z M315.2,318.5l-48.5-83.2l178.7-81.9l48.5,83.2
			L315.2,318.5z"/>
	</g>
</g>
</svg>
