<?xml version="1.0" encoding="utf-8"?>
<!-- Generator: Adobe Illustrator 21.0.0, SVG Export Plug-In . SVG Version: 6.00 Build 0)  -->
<svg version="1.1" id="Capa_1" xmlns="http://www.w3.org/2000/svg" xmlns:xlink="http://www.w3.org/1999/xlink" x="0px" y="0px"
	 viewBox="0 0 32.4 59" style="enable-background:new 0 0 32.4 59;" xml:space="preserve">
<g>
	<path d="M1.5,17.7c0.4,0,0.8-0.1,1-0.4L14.8,5v52.5c0,0.8,0.7,1.5,1.5,1.5c0.8,0,1.5-0.7,1.5-1.5V5l12.2,12.2
		c0.6,0.6,1.5,0.6,2.1,0c0.6-0.6,0.6-1.5,0-2.1L17.3,0.4c-0.1-0.1-0.3-0.2-0.5-0.3c-0.4-0.1-0.8-0.1-1.1,0c-0.2,0.1-0.3,0.2-0.5,0.3
		L0.4,15.2c-0.6,0.6-0.6,1.5,0,2.1C0.7,17.6,1.1,17.7,1.5,17.7z"/>
</g>
</svg>
